<svg xmlns="http://www.w3.org/2000/svg" viewBox="0 0 480 360" width="480" height="360"><style>path{fill:none;stroke:#15161a;stroke-width:1.1;stroke-linecap:round;stroke-linejoin:round;stroke-dasharray:1;stroke-dashoffset:1;animation:draw 1.56s ease forwards}@keyframes draw{to{stroke-dashoffset:0}}</style><path pathLength="1" d="M 167 171 L 190 170 L 190 173 L 185 173 L 190 173 L 191 175 L 195 174 L 196 177 L 187 178 L 187 180 L 205 180 L 206 182 L 201 186 L 189 186 L 182 183 L 172 183 L 60 233 L 60 237 L 63 239 L 162 244 L 163 246 L 161 247 L 161 250 L 159 248 L 157 250 L 154 247 L 146 248 L 107 244 L 106 247 L 104 247 L 103 245 L 100 245 L 98 247 L 94 246 L 93 244 L 89 246 L 87 243 L 82 243 L 79 247 L 79 244 L 75 244 L 74 242 L 66 243 L 64 245 L 60 241 L 57 241 L 57 236 L 54 236 L 53 234 L 49 236 L 51 242 L 49 247 L 51 250 L 56 252 L 56 244 L 62 243 L 63 247 L 60 248 L 60 250 L 72 250 L 76 252 L 102 255 L 104 253 L 104 250 L 99 249 L 100 247 L 141 251 L 143 253 L 142 259 L 138 263 L 127 262 L 131 262 L 133 265 L 140 265 L 147 257 L 149 257 L 149 253 L 146 253 L 148 248 L 154 248 L 157 250 L 167 249 L 171 252 L 164 263 L 165 268 L 168 265 L 168 263 L 166 265 L 165 262 L 168 258 L 171 262 L 170 260 L 172 259 L 173 254 L 173 256 L 171 257 L 170 253 L 174 250 L 176 252 L 176 257 L 173 263 L 176 268 L 173 271 L 152 272 L 139 270 L 127 265 L 73 256 L 55 256 L 52 253 L 39 248 L 29 248 L 25 254 L 23 253 L 23 250 L 21 250 L 21 253 L 24 254 L 21 257 L 18 254 L 20 245 L 27 242 L 25 237 L 26 242 L 21 242 L 23 235 L 21 227 L 24 224 L 28 226 L 29 230 L 35 229 L 40 226 L 44 227 L 53 223 L 58 227 L 57 229 L 53 229 L 39 235 L 36 235 L 35 232 L 33 232 L 31 235 L 29 234 L 27 236 L 30 240 L 32 239 L 31 235 L 34 234 L 36 241 L 36 235 L 39 235 L 40 237 L 46 235 L 43 234 L 44 232 L 57 229 L 75 221 L 76 214 L 78 212 L 80 212 L 81 216 L 83 217 L 98 210 L 96 204 L 89 207 L 91 208 L 89 211 L 78 212 L 75 215 L 69 218 L 67 217 L 66 219 L 63 219 L 58 223 L 53 223 L 44 227 L 42 226 L 43 224 L 100 199 L 103 200 L 101 202 L 103 203 L 102 206 L 104 207 L 108 204 L 112 204 L 115 201 L 124 198 L 125 192 L 112 198 L 109 198 L 109 195 L 132 185 L 134 187 L 130 189 L 130 193 L 133 193 L 137 189 L 140 190 L 144 187 L 148 187 L 151 185 L 151 181 L 154 179 L 140 185 L 140 189 L 138 188 L 138 186 L 136 188 L 134 185 L 157 174 L 159 174 L 160 176 L 157 177 L 158 183 L 156 184 L 156 187 L 124 201 L 159 186 L 159 183 L 165 183 L 163 181 L 165 176 L 167 177 L 166 180 L 168 182 L 172 178 L 179 180 L 180 178 L 182 178 L 182 174 L 172 175 L 179 174 L 179 178 L 171 178 L 169 174 L 168 176 L 165 175 L 161 177 L 160 174 L 165 171" style="animation-delay:0.00s"/><path pathLength="1" d="M 435 57 L 438 57 L 447 74 L 447 80 L 445 81 L 444 77 L 445 89 L 441 92 L 427 96 L 424 98 L 426 101 L 425 99 L 428 96 L 438 92 L 444 94 L 445 97 L 446 94 L 449 94 L 449 91 L 451 93 L 447 83 L 448 80 L 452 85 L 454 91 L 453 94 L 456 93 L 457 95 L 442 101 L 437 100 L 427 104 L 318 215 L 316 214 L 316 212 L 322 203 L 320 199 L 314 201 L 312 200 L 318 193 L 318 191 L 316 194 L 314 193 L 315 191 L 313 193 L 311 191 L 316 187 L 319 189 L 322 185 L 321 182 L 325 178 L 323 180 L 321 180 L 320 178 L 347 151 L 349 152 L 348 150 L 350 148 L 352 149 L 354 147 L 361 147 L 364 153 L 365 160 L 367 160 L 369 158 L 369 153 L 371 151 L 377 150 L 384 142 L 383 138 L 385 136 L 390 136 L 393 134 L 393 131 L 397 130 L 405 121 L 405 115 L 396 115 L 402 108 L 401 105 L 392 115 L 392 121 L 400 119 L 401 122 L 392 132 L 389 132 L 389 119 L 386 118 L 389 115 L 387 116 L 386 114 L 396 104 L 388 112 L 386 110 L 395 101 L 397 102 L 409 88 L 411 89 L 410 93 L 403 102 L 407 99 L 411 89 L 415 85 L 414 80 L 416 78 L 419 79 L 421 76 L 428 74 L 430 75 L 432 73 L 420 76 L 413 80 L 407 81 L 406 84 L 401 84 L 376 94 L 319 121 L 253 155 L 237 170 L 226 185 L 215 204 L 213 212 L 211 213 L 208 211 L 209 205 L 207 213 L 208 222 L 211 222 L 215 226 L 211 231 L 207 233 L 202 223 L 200 222 L 198 212 L 202 212 L 203 200 L 201 206 L 202 210 L 198 210 L 200 222 L 203 226 L 198 228 L 203 227 L 205 230 L 204 232 L 208 237 L 191 242 L 189 241 L 189 232 L 195 209 L 201 198 L 211 186 L 207 185 L 206 182 L 212 180 L 225 181 L 225 178 L 227 177 L 225 167 L 241 150 L 434 57" style="animation-delay:0.23s"/><path pathLength="1" d="M 441 47 L 422 55 L 420 60 L 267 134 L 248 139 L 239 138 L 233 135 L 224 126 L 220 119 L 213 98 L 212 87 L 194 92 L 194 95 L 198 102 L 213 150 L 212 162 L 208 169 L 168 170 L 44 223 L 35 229 L 30 230 L 27 224 L 21 226 L 23 235 L 18 250 L 19 257 L 24 256 L 30 248 L 39 248 L 55 256 L 79 257 L 127 265 L 134 269 L 152 272 L 169 272 L 175 270 L 180 264 L 182 265 L 181 267 L 189 256 L 210 255 L 214 260 L 214 264 L 208 279 L 216 284 L 227 284 L 229 286 L 235 285 L 250 270 L 277 256 L 292 244 L 428 104 L 434 101 L 446 100 L 463 92 L 455 70 L 450 63 L 445 47" style="animation-delay:0.43s"/><path pathLength="1" d="M 421 60 L 425 60 L 421 64 L 345 99 L 258 142 L 256 140 L 252 142 L 253 144 L 243 149 L 241 147 L 249 142 L 241 142 L 236 140 L 244 142 L 245 144 L 232 152 L 228 157 L 225 157 L 223 155 L 223 150 L 218 139 L 226 160 L 224 166 L 221 166 L 221 171 L 214 175 L 214 179 L 211 181 L 204 180 L 202 176 L 209 175 L 211 178 L 210 175 L 213 173 L 203 173 L 202 175 L 198 176 L 196 175 L 197 173 L 191 173 L 192 170 L 197 169 L 216 170 L 210 170 L 209 168 L 212 159 L 214 158 L 216 160 L 213 166 L 214 167 L 217 160 L 217 148 L 215 146 L 217 148 L 217 151 L 213 151 L 203 120 L 206 115 L 208 116 L 215 138 L 215 143 L 215 138 L 202 97 L 200 96 L 200 93 L 198 95 L 200 96 L 199 98 L 202 107 L 200 108 L 194 94 L 196 91 L 205 88 L 207 89 L 205 91 L 205 95 L 211 107 L 215 122 L 222 135 L 225 134 L 231 138 L 231 143 L 234 142 L 231 141 L 232 139 L 234 139 L 229 137 L 223 131 L 224 129 L 239 138 L 248 139 L 260 137 L 420 60" style="animation-delay:0.59s"/><path pathLength="1" d="M 400 85 L 405 84 L 406 86 L 396 99 L 314 183 L 304 184 L 302 182 L 302 170 L 298 168 L 284 171 L 280 174 L 271 176 L 270 181 L 274 190 L 272 192 L 272 197 L 268 197 L 268 193 L 270 193 L 267 193 L 267 198 L 265 200 L 261 197 L 257 197 L 256 207 L 251 201 L 247 201 L 247 208 L 244 209 L 244 212 L 251 219 L 249 222 L 244 219 L 244 216 L 240 209 L 237 207 L 238 204 L 243 207 L 240 204 L 237 204 L 237 211 L 234 212 L 236 218 L 235 220 L 231 215 L 230 211 L 233 210 L 231 208 L 224 209 L 223 216 L 218 219 L 214 219 L 212 213 L 220 195 L 237 171 L 250 158 L 264 149 L 320 121 L 398 85" style="animation-delay:0.72s"/><path pathLength="1" d="M 364 309 L 352 311 L 334 310 L 332 312 L 283 313 L 113 312 L 283 313 L 332 312 L 334 310 L 352 311 L 365 309" style="animation-delay:0.80s"/><path pathLength="1" d="M 304 202 L 306 202 L 308 205 L 317 205 L 317 207 L 311 212 L 311 215 L 317 215 L 311 222 L 311 224 L 283 251 L 271 259 L 249 270 L 234 285 L 230 286 L 228 284 L 231 277 L 230 265 L 215 265 L 211 254 L 219 253 L 222 251 L 224 252 L 223 254 L 234 247 L 236 244 L 238 244 L 239 247 L 243 244 L 244 247 L 242 248 L 247 246 L 256 247 L 255 244 L 246 244 L 244 239 L 241 239 L 241 241 L 239 242 L 239 238 L 235 238 L 235 235 L 253 234 L 263 231 L 275 223 L 289 209 L 291 211 L 280 222 L 282 223 L 281 225 L 278 224 L 272 230 L 262 234 L 262 237 L 260 235 L 258 237 L 254 236 L 253 238 L 246 237 L 248 239 L 253 239 L 268 235 L 277 230 L 287 219 L 291 220 L 292 219 L 290 216 L 296 210 L 298 211 L 300 209 L 299 207" style="animation-delay:0.87s"/><path pathLength="1" d="M 292 317 L 294 317" style="animation-delay:0.93s"/><path pathLength="1" d="M 172 184 L 182 183 L 189 186 L 200 187 L 190 210 L 185 235 L 182 241 L 176 246 L 173 246 L 172 244 L 174 242 L 177 242 L 171 244 L 147 244 L 117 241 L 63 239 L 60 236 L 61 233 L 171 184" style="animation-delay:0.99s"/><path pathLength="1" d="M 309 217 L 304 223 L 302 223 L 300 229 L 298 229 L 289 239 L 276 249 L 242 265 L 242 269 L 238 270 L 234 274 L 236 274 L 238 277 L 232 282 L 240 275 L 238 275 L 237 272 L 240 270 L 242 273 L 241 271 L 244 267 L 247 266 L 247 263 L 277 249 L 290 239 L 296 232 L 298 232 L 310 217" style="animation-delay:1.03s"/><path pathLength="1" d="M 357 150 L 348 159 L 347 164 L 344 163 L 341 167 L 341 163 L 336 168 L 340 166 L 341 169 L 344 170 L 344 172 L 342 173 L 337 170 L 334 173 L 334 176 L 331 178 L 333 177 L 334 181 L 326 181 L 325 184 L 332 191 L 336 191 L 342 185 L 340 187 L 338 186 L 338 179 L 342 182 L 345 182 L 347 180 L 347 164 L 349 165 L 351 174 L 358 170 L 362 165 L 362 157 L 360 151 L 358 150" style="animation-delay:1.06s"/><path pathLength="1" d="M 273 199 L 276 198 L 281 205 L 280 209 L 277 212 L 281 213 L 282 215 L 266 229 L 253 234 L 227 235 L 220 229 L 225 225 L 230 230 L 235 230 L 237 227 L 242 227 L 245 221 L 248 223 L 253 223 L 255 218 L 262 220 L 265 216 L 273 216 L 275 210 L 274 205 L 276 204 L 278 206 L 273 200" style="animation-delay:1.09s"/><path pathLength="1" d="M 222 235 L 230 235 L 234 239 L 232 244 L 230 243 L 229 239 L 228 244 L 223 240 L 227 244 L 227 247 L 222 251 L 219 248 L 217 251 L 212 250 L 193 252 L 190 247 L 186 245 L 187 242 L 191 243 L 192 245 L 196 242 L 219 239 L 219 237 L 221 236 L 222 238 L 222 236" style="animation-delay:1.11s"/><path pathLength="1" d="M 307 123 L 248 153 L 246 156 L 255 149 L 306 124" style="animation-delay:1.13s"/><path pathLength="1" d="M 188 218 L 192 218 L 189 239 L 186 239 L 186 247 L 183 257 L 181 259 L 179 258 L 182 248 L 179 254 L 179 259 L 176 262 L 174 261 L 176 258 L 176 247 L 182 242 L 188 222" style="animation-delay:1.15s"/><path pathLength="1" d="M 385 118 L 387 120 L 384 124 L 384 133 L 381 133 L 381 129 L 378 129 L 376 132 L 379 141 L 378 146 L 374 146 L 375 140 L 373 136 L 367 139 L 361 147 L 359 146 L 359 142 L 369 132 L 371 133 L 374 130 L 373 128 L 376 125 L 379 125 L 381 122" style="animation-delay:1.17s"/><path pathLength="1" d="M 440 48 L 444 47 L 446 49 L 451 66 L 454 69 L 463 90 L 460 94 L 457 93 L 452 76 L 441 56 L 440 51" style="animation-delay:1.18s"/><path pathLength="1" d="M 207 95 L 213 95 L 220 119 L 224 126 L 223 131 L 220 131 L 221 127 L 218 127 L 220 125 L 214 109 L 211 109 L 213 107 L 211 101 L 209 102 L 207 98" style="animation-delay:1.19s"/><path pathLength="1" d="M 437 49 L 440 49 L 441 57 L 448 68 L 454 83 L 453 85 L 451 84 L 446 70 L 438 57 L 437 51" style="animation-delay:1.21s"/><path pathLength="1" d="M 296 182 L 301 181 L 304 185 L 301 189 L 301 196 L 294 200 L 292 199 L 292 197 L 297 192 L 299 193 L 297 191 L 298 189 L 296 188 L 296 186 L 299 184 L 296 185 L 296 190 L 293 190 L 292 185 L 295 182" style="animation-delay:1.22s"/><path pathLength="1" d="M 221 266 L 231 271 L 231 276 L 228 283 L 220 285 L 214 282 L 215 279 L 222 281 L 223 279 L 227 278 L 220 278 L 217 274 L 217 270" style="animation-delay:1.23s"/><path pathLength="1" d="M 290 177 L 294 178 L 292 181 L 293 183 L 291 184 L 289 182 L 289 185 L 277 190 L 277 187 L 274 189 L 272 184 L 280 181 L 285 184 L 284 181 L 287 180" style="animation-delay:1.24s"/><path pathLength="1" d="M 289 197 L 291 196 L 295 202 L 285 206 L 282 211 L 280 210 L 282 204 L 290 201 L 283 203 L 282 201 L 289 198" style="animation-delay:1.25s"/><path pathLength="1" d="M 301 196 L 306 196 L 307 201 L 304 201 L 296 209 L 293 207 L 296 202 L 299 202 L 301 200 L 296 202 L 295 200 L 301 197" style="animation-delay:1.25s"/><path pathLength="1" d="M 344 169 L 347 169 L 347 179 L 343 182 L 339 177 L 337 177 L 337 181 L 334 181 L 334 174 L 337 171 L 339 171 L 342 175 L 344 174" style="animation-delay:1.26s"/><path pathLength="1" d="M 218 264 L 220 265 L 217 270 L 218 277 L 215 277 L 214 271 L 215 277 L 213 278 L 210 275 L 212 267 L 216 266" style="animation-delay:1.27s"/><path pathLength="1" d="M 260 203 L 265 202 L 270 213 L 272 211 L 274 212 L 272 216 L 269 216 L 264 208 L 261 207 L 263 205 L 260 204" style="animation-delay:1.28s"/><path pathLength="1" d="M 196 196 L 198 195 L 201 198 L 198 198 L 197 200 L 199 202 L 196 202 L 193 211 L 190 211 L 196 197" style="animation-delay:1.28s"/><path pathLength="1" d="M 421 100 L 420 104 L 415 108 L 411 108 L 407 112 L 408 115 L 421 105 L 421 103 L 423 102 L 422 100" style="animation-delay:1.29s"/><path pathLength="1" d="M 220 223 L 225 223 L 220 227 L 223 233 L 221 236 L 219 234 L 216 234 L 216 232 L 218 231 L 215 228 L 219 223" style="animation-delay:1.29s"/><path pathLength="1" d="M 310 198 L 312 199 L 312 201 L 319 199 L 322 204 L 318 207 L 317 204 L 309 205 L 307 201" style="animation-delay:1.30s"/><path pathLength="1" d="M 286 194 L 288 193 L 289 197 L 283 200 L 281 204 L 276 197 L 280 197 L 285 194" style="animation-delay:1.30s"/><path pathLength="1" d="M 381 116 L 384 119 L 361 140 L 359 138" style="animation-delay:1.31s"/><path pathLength="1" d="M 163 245 L 170 244 L 176 247 L 173 250 L 168 250 L 167 248 L 170 247 L 167 247 L 166 249 L 163 248" style="animation-delay:1.31s"/><path pathLength="1" d="M 394 114 L 396 116 L 404 115 L 406 117 L 405 120 L 402 121 L 401 119 L 393 121 L 392 116" style="animation-delay:1.32s"/><path pathLength="1" d="M 387 121 L 389 122 L 387 130 L 391 134 L 389 136 L 384 135 L 384 124" style="animation-delay:1.32s"/><path pathLength="1" d="M 328 180 L 333 184 L 337 182 L 338 188 L 333 191 L 326 184 L 326 182" style="animation-delay:1.33s"/><path pathLength="1" d="M 238 212 L 240 211 L 244 217 L 243 219 L 237 219 L 234 214 L 236 213 L 238 215" style="animation-delay:1.33s"/><path pathLength="1" d="M 272 176 L 274 177 L 273 179 L 281 176 L 282 178 L 275 183 L 272 183 L 270 178" style="animation-delay:1.34s"/><path pathLength="1" d="M 350 158 L 353 161 L 355 171 L 353 173 L 350 172 L 348 160" style="animation-delay:1.34s"/><path pathLength="1" d="M 364 144 L 367 145 L 369 157 L 367 159 L 365 158 L 362 146" style="animation-delay:1.35s"/><path pathLength="1" d="M 242 159 L 239 162 L 236 162 L 231 171 L 234 167 L 236 167 L 235 164 L 239 162" style="animation-delay:1.35s"/><path pathLength="1" d="M 196 252 L 211 252 L 210 255 L 196 254" style="animation-delay:1.35s"/><path pathLength="1" d="M 379 129 L 381 130 L 384 141 L 381 144 L 379 143 L 376 132" style="animation-delay:1.36s"/><path pathLength="1" d="M 356 152 L 360 152 L 363 161 L 359 166 L 356 157" style="animation-delay:1.36s"/><path pathLength="1" d="M 247 202 L 250 201 L 256 209 L 256 211 L 254 212 L 250 205 L 247 203" style="animation-delay:1.37s"/><path pathLength="1" d="M 406 85 L 409 84 L 410 86 L 403 95 L 401 94 L 406 87" style="animation-delay:1.37s"/><path pathLength="1" d="M 445 84 L 447 83 L 449 91 L 443 94 L 442 92 L 445 90 L 445 87" style="animation-delay:1.37s"/><path pathLength="1" d="M 434 50 L 436 49 L 437 53 L 433 55 L 433 58 L 429 54 L 433 50" style="animation-delay:1.38s"/><path pathLength="1" d="M 286 187 L 288 186 L 289 188 L 282 193 L 278 193 L 277 191 L 283 187" style="animation-delay:1.38s"/><path pathLength="1" d="M 289 173 L 291 172 L 292 176 L 286 180 L 283 179 L 282 176 L 287 173" style="animation-delay:1.38s"/><path pathLength="1" d="M 147 182 L 150 181 L 151 184 L 143 188 L 141 186 L 146 182" style="animation-delay:1.39s"/><path pathLength="1" d="M 354 156 L 357 158 L 358 166 L 356 168 L 354 167 L 352 158" style="animation-delay:1.39s"/><path pathLength="1" d="M 270 204 L 272 203 L 275 208 L 273 211 L 271 210 L 272 208 L 269 209 L 267 207 L 268 204" style="animation-delay:1.39s"/><path pathLength="1" d="M 115 196 L 118 200 L 110 204 L 109 199 L 113 198" style="animation-delay:1.40s"/><path pathLength="1" d="M 240 220 L 243 220 L 243 225 L 241 227 L 235 225 L 236 223 L 240 223" style="animation-delay:1.40s"/><path pathLength="1" d="M 289 205 L 291 204 L 292 206 L 285 212 L 283 211 L 283 209 L 288 205" style="animation-delay:1.40s"/><path pathLength="1" d="M 219 219 L 221 218 L 222 220 L 219 223 L 215 222 L 214 224 L 211 222 L 213 219" style="animation-delay:1.41s"/><path pathLength="1" d="M 428 54 L 430 55 L 430 57 L 426 60 L 422 58 L 423 55 L 426 56" style="animation-delay:1.41s"/><path pathLength="1" d="M 81 246 L 88 245 L 91 247 L 90 249 L 81 247" style="animation-delay:1.41s"/><path pathLength="1" d="M 303 187 L 308 188 L 310 192 L 303 193 L 301 189" style="animation-delay:1.42s"/><path pathLength="1" d="M 209 87 L 213 89 L 213 92 L 209 94 L 208 92 L 210 90 L 208 91 L 207 89" style="animation-delay:1.42s"/><path pathLength="1" d="M 260 214 L 262 213 L 265 215 L 261 220 L 258 219 L 261 216 L 260 215" style="animation-delay:1.42s"/><path pathLength="1" d="M 270 199 L 272 198 L 274 201 L 273 203 L 267 204 L 266 201 L 270 200" style="animation-delay:1.42s"/><path pathLength="1" d="M 331 194 L 325 202 L 332 194" style="animation-delay:1.43s"/></svg>