<svg xmlns="http://www.w3.org/2000/svg" viewBox="0 0 600 450" width="600" height="450"><style>path{fill:none;stroke:#15161a;stroke-width:1.1;stroke-linecap:round;stroke-linejoin:round;stroke-dasharray:1;stroke-dashoffset:1;animation:draw 1.56s ease forwards}@keyframes draw{to{stroke-dashoffset:0}}</style><path pathLength="1" d="M 558 65 L 565 64 L 567 67 L 569 82 L 574 101 L 579 112 L 580 120 L 572 123 L 569 119 L 568 112 L 565 112 L 567 122 L 566 125 L 560 127 L 553 125 L 550 126 L 552 127 L 551 129 L 546 128 L 511 138 L 377 251 L 374 252 L 373 250 L 391 234 L 364 256 L 370 251 L 373 251 L 374 253 L 350 274 L 348 274 L 347 271 L 356 264 L 356 261 L 376 240 L 389 230 L 388 228 L 386 230 L 384 228 L 406 208 L 410 208 L 408 211 L 411 209 L 415 203 L 423 203 L 417 211 L 423 205 L 425 205 L 427 200 L 424 203 L 421 200 L 425 193 L 428 195 L 430 194 L 432 197 L 439 190 L 442 191 L 445 187 L 445 183 L 449 183 L 447 181 L 454 175 L 448 179 L 441 179 L 441 175 L 436 180 L 436 183 L 433 184 L 432 181 L 435 173 L 437 171 L 439 173 L 440 171 L 442 172 L 447 170 L 450 172 L 453 169 L 455 170 L 481 145 L 478 146 L 477 144 L 503 122 L 502 120 L 496 119 L 458 126 L 455 129 L 451 140 L 449 139 L 451 134 L 450 132 L 445 132 L 303 208 L 271 227 L 266 228 L 260 218 L 399 143 L 415 136 L 445 119 L 497 93 L 513 83 L 527 77 L 537 70 L 539 71 L 539 73 L 534 75 L 539 74 L 539 71 L 541 69 L 552 66 L 556 82 L 552 83 L 550 81 L 548 70 L 550 79 L 548 80 L 545 71 L 547 80 L 550 83 L 513 113 L 502 127 L 515 113 L 521 124 L 520 127 L 517 125 L 519 129 L 517 131 L 515 129 L 514 131 L 511 129 L 512 125 L 516 121 L 511 126 L 509 124 L 500 134 L 497 132 L 500 128 L 495 133 L 493 138 L 491 137 L 492 135 L 490 137 L 493 138 L 494 141 L 476 162 L 478 159 L 489 153 L 490 150 L 488 148 L 492 148 L 509 129 L 512 130 L 511 133 L 513 134 L 517 131 L 520 132 L 528 124 L 556 116 L 558 117 L 559 124 L 557 115 L 558 113 L 560 115 L 559 113 L 557 113 L 552 118 L 527 125 L 525 124 L 528 121 L 544 117 L 544 113 L 541 109 L 539 96 L 549 88 L 551 89 L 556 110 L 558 110 L 558 106 L 553 90 L 554 86 L 557 87 L 562 106 L 565 107 L 556 69 L 557 65" style="animation-delay:0.00s"/><path pathLength="1" d="M 559 64 L 532 72 L 526 77 L 444 119 L 260 217 L 252 217 L 252 173 L 235 173 L 235 245 L 224 250 L 217 259 L 134 278 L 77 293 L 72 293 L 69 288 L 60 290 L 46 289 L 43 291 L 44 299 L 42 301 L 36 302 L 32 305 L 17 308 L 13 312 L 14 321 L 17 318 L 21 318 L 23 320 L 23 323 L 21 326 L 15 326 L 15 328 L 24 332 L 24 326 L 26 324 L 56 325 L 57 328 L 54 330 L 44 330 L 60 329 L 61 327 L 63 327 L 61 326 L 63 323 L 188 301 L 214 299 L 222 301 L 223 303 L 216 323 L 209 329 L 209 333 L 212 335 L 218 333 L 250 336 L 263 335 L 228 335 L 225 334 L 223 330 L 242 321 L 254 312 L 260 312 L 269 309 L 273 309 L 280 317 L 286 327 L 287 332 L 294 333 L 292 332 L 293 330 L 301 331 L 302 325 L 299 320 L 371 256 L 508 141 L 519 135 L 542 129 L 551 129 L 564 125 L 570 125 L 580 121 L 579 112 L 575 104 L 569 82 L 566 64" style="animation-delay:0.28s"/><path pathLength="1" d="M 446 132 L 450 133 L 450 137 L 433 180 L 412 198 L 408 199 L 406 197 L 402 197 L 401 201 L 403 205 L 398 209 L 396 208 L 398 205 L 396 199 L 398 198 L 378 201 L 374 207 L 377 213 L 384 212 L 386 214 L 386 219 L 344 256 L 305 287 L 291 292 L 276 292 L 272 289 L 273 283 L 269 283 L 265 279 L 262 280 L 258 272 L 254 270 L 257 267 L 264 274 L 262 276 L 268 276 L 270 279 L 272 279 L 274 270 L 272 257 L 271 263 L 261 264 L 259 258 L 264 257 L 264 255 L 262 254 L 263 251 L 259 249 L 252 250 L 254 254 L 250 255 L 251 261 L 257 264 L 254 269 L 249 268 L 240 258 L 241 255 L 247 254 L 250 247 L 260 246 L 265 248 L 267 245 L 269 233 L 265 235 L 262 232 L 263 230 L 259 230 L 261 232 L 258 234 L 256 230 L 258 226 L 255 226 L 253 228 L 254 246 L 249 246 L 249 225 L 251 222 L 254 224 L 258 223 L 257 221 L 253 223 L 253 219 L 258 218 L 263 222 L 265 228 L 269 228 L 380 167 L 444 134" style="animation-delay:0.50s"/><path pathLength="1" d="M 197 264 L 201 263 L 202 265 L 200 266 L 203 265 L 204 268 L 217 265 L 221 266 L 220 273 L 223 286 L 222 296 L 219 295 L 217 276 L 215 270 L 213 270 L 212 273 L 216 288 L 216 294 L 214 295 L 213 293 L 211 294 L 209 292 L 207 299 L 200 300 L 197 296 L 203 296 L 204 290 L 199 290 L 199 287 L 197 288 L 194 286 L 192 287 L 194 293 L 197 293 L 198 295 L 191 297 L 191 301 L 140 309 L 57 325 L 52 325 L 51 322 L 53 320 L 57 322 L 58 320 L 46 321 L 49 322 L 48 325 L 38 324 L 45 318 L 48 318 L 47 310 L 44 307 L 54 305 L 54 302 L 57 300 L 76 297 L 160 276 L 76 297 L 72 297 L 72 293 L 77 293 L 194 264" style="animation-delay:0.61s"/><path pathLength="1" d="M 314 282 L 316 281 L 328 293 L 299 319 L 299 323 L 302 326 L 302 329 L 300 331 L 291 329 L 292 331 L 288 332 L 280 316 L 274 309 L 269 309 L 260 312 L 254 312 L 249 316 L 246 316 L 241 321 L 221 330 L 220 327 L 212 334 L 209 332 L 209 330 L 215 326 L 223 303 L 222 301 L 212 299 L 212 295 L 235 299 L 242 298 L 243 301 L 242 297 L 244 296 L 250 305 L 260 306 L 266 301 L 267 298 L 265 290 L 266 287 L 269 288 L 268 290 L 270 297 L 271 293 L 278 296 L 287 296 L 294 294 L 295 296 L 288 302 L 287 305 L 284 302 L 279 306 L 283 316 L 289 323 L 296 318 L 295 316 L 298 313 L 300 314 L 307 305 L 309 306 L 315 298 L 317 299 L 319 295 L 323 293 L 320 293 L 308 304 L 304 304 L 303 308 L 292 318 L 288 319 L 283 310 L 292 303 L 302 292 L 287 296 L 275 295 L 273 292 L 291 292 L 308 286 L 313 282" style="animation-delay:0.71s"/><path pathLength="1" d="M 113 292 L 108 298 L 105 294 L 95 297 L 89 297 L 88 300 L 103 303 L 100 308 L 98 308 L 97 305 L 94 308 L 92 307 L 89 309 L 91 310 L 90 312 L 69 304 L 64 304 L 61 308 L 72 311 L 75 316 L 73 317 L 72 315 L 66 315 L 61 317 L 51 317 L 60 317 L 61 319 L 77 316 L 77 313 L 65 309 L 65 306 L 89 314 L 92 314 L 94 312 L 104 312 L 138 306 L 136 305 L 137 303 L 139 303 L 140 305 L 138 302 L 136 304 L 103 309 L 102 306 L 106 305 L 110 300 L 113 304 L 132 301 L 132 299 L 121 294 L 116 296 L 115 292" style="animation-delay:0.79s"/><path pathLength="1" d="M 229 251 L 235 254 L 231 259 L 231 263 L 228 269 L 228 274 L 231 278 L 243 279 L 247 277 L 249 281 L 242 286 L 242 288 L 244 289 L 243 287 L 245 286 L 246 282 L 248 284 L 250 281 L 255 279 L 251 272 L 254 277 L 253 280 L 251 279 L 251 277 L 247 273 L 247 270 L 247 275 L 243 279 L 240 278 L 242 273 L 242 268 L 240 265 L 244 263 L 248 268 L 253 269 L 258 273 L 260 277 L 260 280 L 258 281 L 261 280 L 265 286 L 263 287 L 258 284 L 251 285 L 248 287 L 244 296 L 241 295 L 241 293 L 243 292 L 241 291 L 240 296 L 224 294 L 220 269 L 222 267 L 226 268 L 223 266 L 224 264 L 227 266 L 225 264 L 225 262 L 229 258 L 227 253" style="animation-delay:0.84s"/><path pathLength="1" d="M 533 78 L 518 86 L 514 86 L 516 91 L 512 96 L 496 104 L 493 102 L 494 104 L 491 107 L 478 114 L 515 94 L 519 94 L 519 97 L 510 100 L 471 121 L 475 118 L 479 119 L 507 114 L 537 90 L 537 87 L 541 84 L 541 81 L 535 82 L 534 79" style="animation-delay:0.88s"/><path pathLength="1" d="M 190 268 L 185 271 L 178 271 L 176 273 L 178 272 L 179 275 L 173 281 L 168 278 L 139 285 L 139 288 L 156 296 L 171 281 L 178 277 L 179 279 L 162 296 L 162 298 L 167 299 L 166 301 L 162 301 L 162 303 L 163 301 L 172 299 L 185 299 L 186 298 L 181 298 L 180 296 L 190 294 L 187 278 L 189 277 L 192 279 L 191 283 L 192 280 L 199 284 L 200 282 L 198 273 L 194 272 L 195 270 L 198 270 L 198 268" style="animation-delay:0.92s"/><path pathLength="1" d="M 237 172 L 240 173 L 240 250 L 241 252 L 243 251 L 244 245 L 246 247 L 247 237 L 246 240 L 243 239 L 243 236 L 246 235 L 246 228 L 248 227 L 250 230 L 250 242 L 248 251 L 246 254 L 240 255 L 239 257 L 243 263 L 239 265 L 236 263 L 237 258 L 235 253 L 235 174" style="animation-delay:0.95s"/><path pathLength="1" d="M 46 289 L 63 289 L 64 292 L 59 293 L 62 294 L 67 292 L 69 297 L 57 300 L 56 298 L 47 297 L 46 302 L 38 305 L 40 307 L 36 308 L 39 309 L 38 311 L 35 311 L 34 309 L 26 311 L 33 309 L 34 311 L 30 313 L 30 316 L 40 317 L 40 320 L 33 320 L 37 320 L 38 323 L 24 324 L 24 321 L 30 321 L 30 319 L 27 316 L 28 320 L 24 321 L 24 313 L 22 311 L 18 311 L 17 309 L 20 307 L 35 304 L 39 301 L 43 301 L 43 292" style="animation-delay:0.99s"/><path pathLength="1" d="M 386 216 L 389 216 L 390 222 L 376 236 L 379 234 L 380 237 L 364 251 L 359 252 L 341 275 L 332 284 L 330 283 L 330 281 L 338 274 L 335 274 L 333 276 L 330 275 L 341 263 L 339 265 L 337 265 L 336 263 L 380 226 L 386 219" style="animation-delay:1.02s"/><path pathLength="1" d="M 533 86 L 536 86 L 536 88 L 533 89 L 534 91 L 530 91 L 531 93 L 506 114 L 482 118 L 482 115 L 500 105 L 503 105 L 504 107 L 500 111 L 497 111 L 506 108 L 511 103 L 506 107 L 504 106 L 505 103 L 518 97 L 522 97 L 528 92 L 527 89 L 532 86" style="animation-delay:1.05s"/><path pathLength="1" d="M 495 120 L 501 120 L 502 122 L 444 171 L 441 171 L 440 168 L 455 130 L 461 125 L 491 120" style="animation-delay:1.07s"/><path pathLength="1" d="M 248 172 L 252 174 L 253 218 L 249 226 L 243 226 L 247 221 L 246 174" style="animation-delay:1.09s"/><path pathLength="1" d="M 225 301 L 228 302 L 228 305 L 222 321 L 223 326 L 229 324 L 234 319 L 236 320 L 237 317 L 240 318 L 242 316 L 241 313 L 243 310 L 245 311 L 245 314 L 251 310 L 250 308 L 247 310 L 247 307 L 242 303 L 233 301 L 229 303 L 228 301" style="animation-delay:1.11s"/><path pathLength="1" d="M 430 184 L 432 183 L 433 186 L 423 194 L 420 198 L 419 203 L 414 203 L 398 213 L 396 212 L 398 209 L 429 184" style="animation-delay:1.12s"/><path pathLength="1" d="M 293 203 L 289 207 L 285 207 L 285 209 L 281 212 L 268 218 L 267 221 L 269 222 L 279 216 L 285 216 L 283 214 L 288 214 L 288 209 L 290 211 L 294 208 L 297 209 L 298 208 L 290 208 L 294 204" style="animation-delay:1.14s"/><path pathLength="1" d="M 475 146 L 477 145 L 478 147 L 459 165 L 457 165 L 450 171 L 448 171 L 447 169 L 474 146" style="animation-delay:1.15s"/><path pathLength="1" d="M 232 264 L 236 263 L 240 267 L 239 269 L 242 269 L 241 275 L 238 278 L 234 279 L 230 276 L 231 274 L 228 273 L 230 271 L 228 269 L 232 266 L 233 273 L 239 273 L 232 266" style="animation-delay:1.16s"/><path pathLength="1" d="M 536 100 L 538 99 L 540 102 L 540 106 L 544 114 L 543 117 L 525 122 L 518 115 L 519 113 L 524 112 L 527 107 L 529 108 L 536 102" style="animation-delay:1.17s"/><path pathLength="1" d="M 263 295 L 266 294 L 267 298 L 260 306 L 252 306 L 250 304 L 251 299 L 256 299 L 257 301 L 254 302 L 259 302 L 257 300 L 258 298 L 253 298 L 254 296 L 259 295 L 263 299" style="animation-delay:1.18s"/><path pathLength="1" d="M 167 279 L 169 278 L 170 281 L 156 295 L 153 295 L 140 288 L 139 286 L 163 279" style="animation-delay:1.19s"/><path pathLength="1" d="M 229 330 L 234 330" style="animation-delay:1.20s"/><path pathLength="1" d="M 231 303 L 238 302 L 244 305 L 241 314 L 225 325 L 224 323 L 231 304" style="animation-delay:1.21s"/><path pathLength="1" d="M 131 287 L 124 289 L 123 292 L 139 300 L 148 298 L 148 296 L 139 291 L 136 291 L 132 287" style="animation-delay:1.22s"/><path pathLength="1" d="M 221 254 L 224 254 L 223 265 L 221 264 L 211 267 L 206 266 L 207 264 L 209 264 L 206 263 L 207 261 L 218 259 L 221 255" style="animation-delay:1.23s"/><path pathLength="1" d="M 362 245 L 362 247 L 349 256 L 349 259 L 343 264 L 349 260 L 349 257 L 363 246" style="animation-delay:1.23s"/><path pathLength="1" d="M 201 270 L 205 273 L 208 290 L 205 273 L 209 271 L 204 272 L 202 270" style="animation-delay:1.24s"/><path pathLength="1" d="M 17 333 L 21 333 L 24 337 L 23 339 L 19 339 L 18 336 L 17 341 L 23 342 L 24 344 L 22 346 L 15 346 L 13 341 L 14 336" style="animation-delay:1.25s"/><path pathLength="1" d="M 557 85 L 560 85 L 565 106 L 562 106 L 557 88" style="animation-delay:1.25s"/><path pathLength="1" d="M 444 151 L 446 150 L 447 152 L 440 170 L 437 170 L 444 152" style="animation-delay:1.26s"/><path pathLength="1" d="M 181 278 L 188 283 L 190 293 L 188 295 L 164 298 L 163 296" style="animation-delay:1.27s"/><path pathLength="1" d="M 332 266 L 335 269 L 332 270 L 332 272 L 327 277 L 325 276 L 323 278 L 323 281 L 317 282 L 316 280 L 327 271" style="animation-delay:1.27s"/><path pathLength="1" d="M 244 178 L 247 178 L 247 219 L 244 219" style="animation-delay:1.28s"/><path pathLength="1" d="M 154 299 L 150 302 L 142 302 L 146 304 L 147 302 L 151 302 L 153 304 L 151 302 L 152 300 L 158 302 L 156 301 L 156 299" style="animation-delay:1.29s"/><path pathLength="1" d="M 254 250 L 257 249 L 258 251 L 262 251 L 262 253 L 258 255 L 258 263 L 252 261 L 255 256 L 254 252" style="animation-delay:1.29s"/><path pathLength="1" d="M 43 310 L 45 309 L 47 311 L 47 318 L 32 317 L 30 314 L 34 311 L 39 310" style="animation-delay:1.30s"/><path pathLength="1" d="M 16 333 L 13 339 L 14 346 L 23 346 L 25 344 L 26 339 L 21 333" style="animation-delay:1.30s"/><path pathLength="1" d="M 530 80 L 534 80 L 532 83 L 520 89 L 518 87 L 529 80" style="animation-delay:1.31s"/><path pathLength="1" d="M 134 292 L 138 291 L 146 295 L 146 299 L 136 298 L 130 295 L 130 292" style="animation-delay:1.31s"/><path pathLength="1" d="M 223 295 L 230 294 L 240 297 L 239 299 L 223 296" style="animation-delay:1.32s"/><path pathLength="1" d="M 270 264 L 272 263 L 274 268 L 272 275 L 264 275 L 265 273 L 270 273 L 270 268" style="animation-delay:1.32s"/><path pathLength="1" d="M 248 288 L 250 287 L 254 292 L 257 291 L 260 293 L 259 295 L 255 294 L 253 296 L 247 291 L 248 289" style="animation-delay:1.33s"/><path pathLength="1" d="M 213 273 L 216 273 L 219 288 L 218 290 L 216 289 L 213 278" style="animation-delay:1.33s"/><path pathLength="1" d="M 95 297 L 99 296 L 100 298 L 97 299 L 100 299 L 100 302 L 90 300 L 90 297 L 94 297" style="animation-delay:1.34s"/><path pathLength="1" d="M 435 184 L 437 183 L 439 187 L 429 194 L 426 193 L 435 185" style="animation-delay:1.34s"/><path pathLength="1" d="M 119 295 L 127 297 L 130 300 L 128 302 L 114 304 L 113 301" style="animation-delay:1.34s"/><path pathLength="1" d="M 553 66 L 556 66 L 559 79 L 558 81 L 556 80 L 553 70" style="animation-delay:1.35s"/><path pathLength="1" d="M 253 285 L 258 284 L 263 287 L 264 290 L 262 292 L 254 291 L 251 288 L 252 285" style="animation-delay:1.35s"/><path pathLength="1" d="M 383 208 L 390 207 L 392 210 L 394 208 L 396 209 L 393 213 L 391 213 L 389 210 L 383 209" style="animation-delay:1.36s"/><path pathLength="1" d="M 326 279 L 328 280 L 326 284 L 329 282 L 330 287 L 325 290 L 321 286 L 323 282" style="animation-delay:1.36s"/><path pathLength="1" d="M 262 264 L 268 264 L 270 266 L 269 269 L 262 267 L 258 268 L 257 266 L 261 264" style="animation-delay:1.37s"/><path pathLength="1" d="M 536 95 L 538 96 L 538 98 L 528 106 L 526 106 L 525 104 L 532 99" style="animation-delay:1.37s"/><path pathLength="1" d="M 267 235 L 269 236 L 267 245 L 264 248 L 262 247 L 262 239 L 264 238" style="animation-delay:1.37s"/><path pathLength="1" d="M 192 274 L 198 274 L 198 282 L 190 277 L 191 274" style="animation-delay:1.38s"/><path pathLength="1" d="M 518 117 L 520 116 L 525 122 L 525 126 L 523 127 L 518 118" style="animation-delay:1.38s"/><path pathLength="1" d="M 245 293 L 248 292 L 251 294 L 250 296 L 248 296 L 253 297 L 250 300 L 247 300 L 245 297" style="animation-delay:1.39s"/><path pathLength="1" d="M 565 113 L 568 113 L 571 123 L 570 125 L 568 125 L 565 117" style="animation-delay:1.39s"/><path pathLength="1" d="M 254 239 L 262 239 L 261 246 L 255 246 L 253 243 L 254 241" style="animation-delay:1.39s"/><path pathLength="1" d="M 49 303 L 53 302 L 53 305 L 44 307 L 40 306 L 44 303" style="animation-delay:1.40s"/><path pathLength="1" d="M 275 276 L 277 282 L 277 287 L 275 288 L 277 288 L 275 277" style="animation-delay:1.40s"/><path pathLength="1" d="M 392 199 L 395 198 L 396 201 L 389 203 L 383 202 L 384 200 L 388 199" style="animation-delay:1.40s"/><path pathLength="1" d="M 386 211 L 388 210 L 394 217 L 391 220 L 390 216 L 386 214" style="animation-delay:1.41s"/><path pathLength="1" d="M 343 272 L 345 271 L 348 274 L 342 280 L 340 276 L 343 273" style="animation-delay:1.41s"/><path pathLength="1" d="M 275 329 L 271 331 L 268 330 L 272 331 L 283 329" style="animation-delay:1.41s"/><path pathLength="1" d="M 240 234 L 243 234 L 243 250 L 240 250" style="animation-delay:1.42s"/><path pathLength="1" d="M 273 216 L 276 215 L 277 217 L 271 221 L 269 221 L 268 219 L 272 216" style="animation-delay:1.42s"/><path pathLength="1" d="M 15 327 L 24 327 L 23 330 L 18 330 L 15 328" style="animation-delay:1.42s"/><path pathLength="1" d="M 270 247 L 270 250 L 267 254 L 268 261 L 268 257 L 270 256" style="animation-delay:1.42s"/><path pathLength="1" d="M 389 203 L 392 202 L 396 205 L 394 208 L 391 208 L 391 205 L 389 204" style="animation-delay:1.43s"/></svg>