<svg xmlns="http://www.w3.org/2000/svg" viewBox="0 0 600 400" width="600" height="400"><style>path{fill:none;stroke:#15161a;stroke-width:1.1;stroke-linecap:round;stroke-linejoin:round;stroke-dasharray:1;stroke-dashoffset:1;animation:draw 1.56s ease forwards}@keyframes draw{to{stroke-dashoffset:0}}</style><path pathLength="1" d="M 549 8 L 548 9 L 552 12 L 559 32 L 564 39 L 571 59 L 570 62 L 566 60 L 562 46 L 558 42 L 546 10 L 541 10 L 536 13 L 527 15 L 517 22 L 489 35 L 481 43 L 420 79 L 297 156 L 289 156 L 267 136 L 263 127 L 265 132 L 264 135 L 261 133 L 260 128 L 263 136 L 266 135 L 285 154 L 293 157 L 302 154 L 334 134 L 335 136 L 295 162 L 284 161 L 263 141 L 263 143 L 261 144 L 255 130 L 260 148 L 265 159 L 267 167 L 265 171 L 268 172 L 267 174 L 264 174 L 262 171 L 250 132 L 251 139 L 262 168 L 262 172 L 259 174 L 257 173 L 244 134 L 245 132 L 247 134 L 246 131 L 248 129 L 262 125 L 262 119 L 256 118 L 247 120 L 236 125 L 236 129 L 238 131 L 244 132 L 258 174 L 258 176 L 254 178 L 264 175 L 268 179 L 273 174 L 310 167 L 309 166 L 297 170 L 294 169 L 299 163 L 304 162 L 306 155 L 339 134 L 347 136 L 351 130 L 353 132 L 357 124 L 361 126 L 365 124 L 363 123 L 363 120 L 366 117 L 370 116 L 372 121 L 375 118 L 373 117 L 373 115 L 377 111 L 385 108 L 386 110 L 384 113 L 389 110 L 384 106 L 379 111 L 370 114 L 354 125 L 354 129 L 350 127 L 337 135 L 335 133 L 393 97 L 394 99 L 388 103 L 387 106 L 392 103 L 392 109 L 392 107 L 395 105 L 397 108 L 396 110 L 390 112 L 370 126 L 359 131 L 310 164 L 329 167 L 320 166 L 319 164 L 352 142 L 488 61 L 491 61 L 494 64 L 494 67 L 366 262 L 357 274 L 341 288 L 337 290 L 329 290 L 320 283 L 321 281 L 324 281 L 327 276 L 326 274 L 322 273 L 321 270 L 327 269 L 328 265 L 320 262 L 318 258 L 331 256 L 331 253 L 329 251 L 321 249 L 320 246 L 334 243 L 334 241 L 329 237 L 329 234 L 331 232 L 336 231 L 336 228 L 331 225 L 334 220 L 344 219 L 347 223 L 358 221 L 362 199 L 367 183 L 365 181 L 367 170 L 356 167 L 352 169 L 349 175 L 345 175 L 342 172 L 342 174 L 340 175 L 337 169 L 331 169 L 328 175 L 331 179 L 335 179 L 336 181 L 322 190 L 308 202 L 305 201 L 307 194 L 304 189 L 300 189 L 295 192 L 295 197 L 298 201 L 296 203 L 264 194 L 249 194 L 249 191 L 254 191 L 256 189 L 256 183 L 252 180 L 236 183 L 215 196 L 213 195 L 209 197 L 204 202 L 196 204 L 189 210 L 186 209 L 83 268 L 74 268 L 74 271 L 70 275 L 61 280 L 52 282 L 46 278 L 45 273 L 39 275 L 40 289 L 26 305 L 35 297 L 40 297 L 44 304 L 35 305 L 32 303 L 31 304 L 39 305 L 39 309 L 31 307 L 24 310 L 24 320 L 21 337 L 23 344 L 25 345 L 33 341 L 38 330 L 56 330 L 70 327 L 79 328 L 221 303 L 229 300 L 247 297 L 252 293 L 255 293 L 259 298 L 258 341 L 258 328 L 261 328 L 263 325 L 262 320 L 264 296 L 268 296 L 270 293 L 275 292 L 278 285 L 274 292 L 264 295 L 263 297 L 264 309 L 261 326 L 259 325 L 259 297 L 256 293 L 252 293 L 251 291 L 270 286 L 279 280 L 278 278 L 282 275 L 282 268 L 284 266 L 286 250 L 296 214 L 301 207 L 305 206 L 314 199 L 316 203 L 311 206 L 311 210 L 314 215 L 308 218 L 308 221 L 312 225 L 312 227 L 306 230 L 306 234 L 310 238 L 303 243 L 306 248 L 312 250 L 313 252 L 301 254 L 301 258 L 307 263 L 299 266 L 298 275 L 301 280 L 293 288 L 293 291 L 284 291 L 282 289 L 282 280 L 284 276 L 282 280 L 282 287 L 279 290 L 291 290 L 292 296 L 289 296 L 288 299 L 285 298 L 280 302 L 280 297 L 277 293 L 279 297 L 279 308 L 279 305 L 281 304 L 282 309 L 287 313 L 281 313 L 273 318 L 267 316 L 266 314 L 266 318 L 271 317 L 273 319 L 271 321 L 275 321 L 276 323 L 270 324 L 265 320 L 266 323 L 268 322 L 269 324 L 264 328 L 262 334 L 262 341 L 265 344 L 263 349 L 275 349 L 279 347 L 284 349 L 280 347 L 283 343 L 286 344 L 284 346 L 288 347 L 285 339 L 289 337 L 287 335 L 292 332 L 289 331 L 289 327 L 292 325 L 289 326 L 288 324 L 304 318 L 305 320 L 302 321 L 300 325 L 303 321 L 311 319 L 313 317 L 305 317 L 287 324 L 288 327 L 284 332 L 282 331 L 282 328 L 284 327 L 282 324 L 274 321 L 274 317 L 285 322 L 291 319 L 287 320 L 283 316 L 284 314 L 291 314 L 299 311 L 305 312 L 316 306 L 318 307 L 318 310 L 314 312 L 315 314 L 318 311 L 325 313 L 326 311 L 330 311 L 332 309 L 335 310 L 335 304 L 337 305 L 340 301 L 353 294 L 341 301 L 338 301 L 337 299 L 344 294 L 341 291 L 346 288 L 344 290 L 342 288 L 349 283 L 350 285 L 348 287 L 348 291 L 365 276 L 381 251 L 367 272 L 364 272 L 365 269 L 404 210 L 401 214 L 399 213 L 414 189 L 418 188 L 416 186 L 420 185 L 418 183 L 421 183 L 421 178 L 425 177 L 423 175 L 426 175 L 426 171 L 432 162 L 435 164 L 435 166 L 415 197 L 415 203 L 411 203 L 383 247 L 384 250 L 387 250 L 395 237 L 400 241 L 403 247 L 376 286 L 364 298 L 354 305 L 304 329 L 299 330 L 294 335 L 294 338 L 288 341 L 289 342 L 291 339 L 304 337 L 310 333 L 332 325 L 357 313 L 369 305 L 385 289 L 414 244 L 494 128 L 510 102 L 515 98 L 522 85 L 530 77 L 537 73 L 547 73 L 571 63 L 571 59 L 563 36 L 557 27 L 556 21 L 550 8" style="animation-delay:0.00s"/><path pathLength="1" d="M 541 11 L 545 10 L 548 15 L 558 42 L 563 49 L 567 61 L 566 63 L 564 62 L 567 65 L 560 68 L 560 61 L 557 61 L 560 62 L 557 69 L 547 73 L 536 73 L 529 77 L 519 89 L 517 88 L 517 86 L 523 79 L 518 84 L 516 89 L 511 90 L 510 88 L 515 82 L 515 79 L 526 68 L 534 68 L 535 64 L 533 68 L 529 66 L 519 73 L 517 69 L 522 67 L 520 65 L 521 67 L 517 68 L 516 65 L 521 62 L 517 63 L 515 61 L 515 59 L 519 57 L 516 58 L 514 56 L 509 56 L 509 58 L 502 65 L 502 59 L 506 57 L 504 53 L 506 51 L 508 52 L 512 45 L 520 45 L 528 40 L 539 41 L 539 39 L 542 38 L 540 37 L 538 40 L 528 40 L 519 45 L 517 43 L 515 46 L 511 45 L 508 51 L 506 50 L 499 56 L 497 65 L 500 61 L 501 66 L 497 68 L 489 83 L 488 100 L 490 102 L 502 98 L 503 100 L 494 111 L 482 96 L 479 97 L 472 108 L 472 112 L 484 128 L 480 128 L 465 150 L 462 147 L 477 125 L 476 121 L 472 123 L 459 143 L 456 140 L 471 118 L 470 114 L 467 116 L 464 114 L 494 67 L 494 63 L 492 61 L 487 61 L 351 142 L 316 165 L 314 163 L 317 159 L 346 140 L 350 139 L 360 131 L 371 126 L 391 112 L 417 98 L 425 91 L 437 85 L 464 67 L 499 48 L 508 41 L 516 41 L 515 39 L 522 34 L 533 30 L 535 28 L 534 26 L 532 30 L 521 34 L 514 40 L 504 43 L 498 48 L 461 69 L 458 68 L 458 65 L 456 64 L 457 61 L 455 67 L 456 69 L 459 69 L 458 71 L 398 108 L 393 104 L 393 101 L 396 98 L 421 83 L 423 83 L 425 87 L 428 84 L 432 83 L 439 75 L 444 75 L 447 72 L 450 73 L 452 71 L 448 71 L 448 68 L 451 64 L 446 69 L 441 70 L 410 90 L 405 92 L 405 89 L 482 42 L 485 43 L 483 50 L 487 50 L 487 48 L 484 47 L 486 44 L 489 43 L 491 45 L 490 49 L 491 41 L 498 37 L 501 41 L 501 35 L 521 24 L 527 22 L 530 24 L 528 27 L 525 26 L 521 29 L 524 31 L 524 28 L 529 27 L 531 23 L 539 23 L 538 19 L 535 18 L 533 14 L 540 11" style="animation-delay:0.42s"/><path pathLength="1" d="M 249 199 L 264 199 L 269 204 L 272 213 L 272 225 L 265 253 L 261 255 L 264 259 L 270 262 L 271 265 L 265 265 L 265 267 L 263 268 L 263 261 L 261 262 L 257 255 L 247 254 L 232 266 L 223 271 L 225 272 L 223 275 L 226 273 L 228 275 L 220 279 L 229 276 L 239 269 L 241 269 L 243 273 L 248 274 L 245 274 L 242 269 L 246 265 L 251 268 L 252 267 L 248 265 L 249 263 L 251 263 L 256 266 L 255 273 L 247 280 L 247 284 L 249 286 L 254 286 L 258 281 L 260 282 L 264 276 L 269 281 L 271 279 L 269 274 L 259 272 L 259 268 L 270 267 L 273 263 L 276 264 L 280 262 L 281 264 L 281 262 L 273 260 L 275 262 L 272 263 L 262 256 L 267 256 L 271 251 L 271 259 L 272 249 L 274 246 L 277 246 L 278 248 L 275 250 L 277 252 L 276 254 L 279 251 L 282 252 L 282 260 L 283 252 L 279 249 L 281 247 L 275 245 L 272 241 L 275 231 L 274 228 L 276 227 L 277 223 L 276 214 L 281 211 L 284 217 L 289 217 L 287 213 L 291 211 L 293 213 L 293 216 L 288 228 L 280 224 L 280 217 L 280 225 L 278 229 L 280 225 L 284 227 L 283 230 L 280 231 L 281 232 L 285 228 L 288 229 L 283 249 L 286 251 L 283 267 L 275 267 L 272 269 L 272 275 L 278 280 L 270 286 L 247 292 L 246 289 L 248 288 L 245 289 L 245 286 L 238 288 L 236 283 L 237 287 L 232 290 L 238 288 L 239 290 L 236 293 L 219 297 L 218 285 L 224 285 L 224 282 L 227 281 L 230 287 L 228 288 L 226 286 L 225 291 L 221 293 L 225 292 L 226 288 L 230 288 L 229 284 L 232 277 L 226 281 L 222 281 L 224 283 L 223 285 L 218 284 L 217 276 L 221 272 L 216 272 L 68 307 L 63 311 L 54 312 L 53 310 L 73 295 L 92 284 L 105 279 L 110 274 L 208 220 L 242 203 L 247 199" style="animation-delay:0.57s"/><path pathLength="1" d="M 513 90 L 518 89 L 519 91 L 510 101 L 494 127 L 414 243 L 385 288 L 368 305 L 356 313 L 337 321 L 332 325 L 307 334 L 298 339 L 295 339 L 294 336 L 300 330 L 350 308 L 365 298 L 376 287 L 404 247 L 397 237 L 394 237 L 386 250 L 384 249 L 384 246 L 409 207 L 412 204 L 414 206 L 406 218 L 407 225 L 399 235 L 407 225 L 413 231 L 415 231 L 426 215 L 420 205 L 424 201 L 427 194 L 420 205 L 414 199 L 421 190 L 438 161 L 441 158 L 444 158 L 449 164 L 449 168 L 446 174 L 454 172 L 459 166 L 456 166 L 449 158 L 457 147 L 457 144 L 461 142 L 472 124 L 475 122 L 475 127 L 462 146 L 462 149 L 466 150 L 480 129 L 483 130 L 486 127 L 500 104 L 512 90" style="animation-delay:0.68s"/><path pathLength="1" d="M 215 273 L 218 273 L 217 276 L 211 278 L 210 280 L 205 280 L 84 309 L 84 312 L 92 319 L 99 319 L 209 298 L 210 281 L 215 279 L 217 280 L 218 297 L 221 300 L 221 296 L 228 298 L 236 296 L 234 295 L 235 293 L 242 294 L 249 291 L 251 293 L 246 297 L 221 303 L 84 327 L 80 326 L 81 324 L 83 324 L 83 321 L 75 314 L 76 312 L 81 311 L 81 309 L 75 310 L 75 313 L 64 313 L 63 311 L 69 307 L 212 273" style="animation-delay:0.76s"/><path pathLength="1" d="M 238 193 L 242 192 L 244 194 L 242 198 L 207 215 L 105 271 L 44 309 L 42 308 L 45 304 L 42 299 L 43 297 L 45 297 L 46 301 L 61 295 L 77 284 L 76 282 L 81 280 L 83 276 L 86 277 L 90 273 L 102 270 L 105 266 L 111 265 L 114 260 L 116 261 L 115 263 L 122 257 L 128 255 L 131 251 L 138 250 L 146 243 L 166 233 L 173 227 L 177 227 L 180 224 L 185 223 L 189 218 L 202 213 L 206 209 L 211 208 L 225 199 L 227 199 L 228 202 L 229 198 L 237 197 L 232 197 L 237 193" style="animation-delay:0.82s"/><path pathLength="1" d="M 246 194 L 252 194 L 252 198 L 247 199 L 109 274 L 104 279 L 84 288 L 57 305 L 53 309 L 52 314 L 48 309 L 49 306 L 96 277 L 102 277 L 100 276 L 101 274 L 106 273 L 108 270 L 206 216 L 241 198 L 246 197 L 246 195" style="animation-delay:0.86s"/><path pathLength="1" d="M 237 183 L 239 183 L 240 185 L 228 194 L 223 195 L 221 202 L 187 219 L 149 242 L 144 244 L 135 242 L 133 247 L 129 247 L 121 253 L 117 252 L 117 255 L 110 259 L 105 259 L 105 261 L 100 264 L 100 267 L 96 268 L 96 272 L 85 274 L 84 276 L 81 272 L 78 272 L 75 277 L 62 284 L 56 284 L 55 282 L 71 275 L 74 272 L 75 268 L 84 268 L 168 220 L 171 221 L 173 217 L 176 219 L 179 217 L 176 218 L 176 215 L 180 214 L 181 216 L 187 213 L 192 208 L 196 207 L 197 204 L 199 205 L 201 202 L 203 203 L 210 197 L 215 197 L 235 185" style="animation-delay:0.90s"/><path pathLength="1" d="M 204 281 L 210 281 L 210 296 L 208 298 L 99 319 L 93 319 L 84 311 L 87 308 L 133 298 L 134 300 L 126 303 L 126 310 L 140 307 L 142 305 L 146 306 L 148 302 L 150 304 L 153 304 L 155 302 L 160 303 L 159 295 L 151 297 L 150 299 L 144 298 L 140 300 L 135 300 L 135 297 L 201 281" style="animation-delay:0.94s"/><path pathLength="1" d="M 542 22 L 542 26 L 539 27 L 537 31 L 530 37 L 539 30 L 541 34 L 544 32 L 546 33 L 545 40 L 541 44 L 524 49 L 522 52 L 522 59 L 528 63 L 531 63 L 535 60 L 537 61 L 536 52 L 531 47 L 538 44 L 542 44 L 546 47 L 549 44 L 550 47 L 546 51 L 543 52 L 542 48 L 542 52 L 540 53 L 539 57 L 541 58 L 542 62 L 540 65 L 538 63 L 538 65 L 546 65 L 548 69 L 549 66 L 552 68 L 555 67 L 552 68 L 546 63 L 546 61 L 541 60 L 541 58 L 543 56 L 546 56 L 551 49 L 558 48 L 560 52 L 559 48 L 556 47 L 552 42 L 552 34 L 551 37 L 549 36 L 548 27 L 545 23 L 543 23" style="animation-delay:0.97s"/><path pathLength="1" d="M 340 179 L 344 179 L 352 183 L 351 196 L 345 217 L 347 219 L 345 220 L 341 217 L 346 196 L 346 192 L 342 186 L 339 185 L 338 191 L 343 195 L 338 204 L 327 204 L 324 200 L 320 204 L 314 198 L 317 195 L 319 196 L 318 198 L 320 196 L 329 195 L 334 196 L 336 198 L 336 201 L 336 198 L 339 196 L 330 192 L 331 190 L 334 190 L 331 189 L 329 193 L 324 193 L 323 196 L 319 196 L 318 194 L 338 181" style="animation-delay:0.99s"/><path pathLength="1" d="M 333 216 L 336 215 L 338 218 L 336 220 L 333 220 L 331 224 L 332 227 L 336 229 L 334 232 L 330 232 L 329 238 L 333 241 L 332 244 L 330 244 L 329 241 L 318 239 L 319 237 L 322 237 L 323 234 L 316 234 L 313 240 L 310 239 L 310 235 L 314 231 L 326 231 L 328 228 L 330 228 L 325 228 L 324 224 L 321 222 L 318 222 L 317 227 L 315 228 L 317 228 L 317 225 L 319 224 L 320 228 L 326 228 L 326 231 L 314 230 L 309 235 L 306 233 L 308 229 L 312 228 L 312 223 L 316 219 L 329 218 L 330 216" style="animation-delay:1.01s"/><path pathLength="1" d="M 39 309 L 41 308 L 42 310 L 47 308 L 49 312 L 43 313 L 44 315 L 45 313 L 49 313 L 50 315 L 47 317 L 46 316 L 54 316 L 54 312 L 57 314 L 72 312 L 83 322 L 77 327 L 72 327 L 71 325 L 58 327 L 57 325 L 59 322 L 61 323 L 61 319 L 59 317 L 57 319 L 56 317 L 58 321 L 57 326 L 51 327 L 56 327 L 56 330 L 39 330 L 38 328 L 41 319 L 39 310" style="animation-delay:1.03s"/><path pathLength="1" d="M 315 258 L 317 257 L 318 261 L 328 266 L 326 269 L 320 270 L 321 273 L 326 275 L 326 278 L 323 281 L 320 281 L 321 286 L 319 288 L 318 296 L 301 299 L 301 295 L 305 295 L 302 294 L 296 287 L 302 280 L 302 278 L 298 274 L 299 267 L 301 265 L 307 264 L 310 266 L 308 268 L 319 268 L 321 265 L 315 265 L 315 262" style="animation-delay:1.04s"/><path pathLength="1" d="M 311 170 L 281 176 L 270 180 L 271 183 L 277 185 L 279 189 L 278 187 L 282 186 L 288 188 L 291 192 L 295 188 L 291 191 L 286 187 L 287 184 L 291 185 L 302 182 L 308 188 L 314 188 L 316 184 L 321 182 L 324 177 L 323 173 L 321 171 L 314 170" style="animation-delay:1.06s"/><path pathLength="1" d="M 30 308 L 33 307 L 37 309 L 31 316 L 32 319 L 35 319 L 35 315 L 38 311 L 41 314 L 41 319 L 35 337 L 30 343 L 26 345 L 23 342 L 26 338 L 31 338 L 32 332 L 29 330 L 25 331 L 25 338 L 23 339 L 21 336 L 21 331 L 24 320 L 23 314 L 24 311 L 28 308" style="animation-delay:1.07s"/><path pathLength="1" d="M 513 56 L 515 57 L 515 60 L 511 65 L 513 67 L 513 65 L 515 64 L 515 69 L 512 70 L 509 75 L 507 74 L 508 69 L 503 72 L 503 75 L 508 79 L 505 76 L 510 75 L 513 70 L 518 72 L 519 74 L 511 81 L 503 84 L 499 83 L 500 68 L 503 67 L 504 64 L 511 58" style="animation-delay:1.08s"/><path pathLength="1" d="M 260 195 L 264 194 L 283 200 L 280 208 L 277 207 L 275 200 L 276 204 L 274 205 L 277 219 L 275 220 L 275 225 L 272 229 L 272 213 L 268 201 L 264 199 L 253 198 L 254 195 L 260 196" style="animation-delay:1.09s"/><path pathLength="1" d="M 497 69 L 500 69 L 499 85 L 512 80 L 514 81 L 502 98 L 489 101 L 489 83 L 493 76 L 495 77 L 493 81 L 497 74 L 496 76 L 494 74 L 497 70" style="animation-delay:1.11s"/><path pathLength="1" d="M 266 155 L 273 155 L 275 161 L 294 162 L 289 168 L 292 167 L 294 169 L 293 171 L 278 173 L 277 171 L 279 167 L 278 165 L 272 167 L 273 170 L 271 171 L 276 171 L 277 173 L 269 174 L 265 163 L 266 157" style="animation-delay:1.11s"/><path pathLength="1" d="M 315 236 L 318 236 L 318 240 L 329 242 L 327 245 L 325 245 L 324 243 L 320 246 L 320 249 L 325 250 L 326 252 L 319 253 L 317 249 L 311 250 L 304 245 L 306 241 L 311 240 L 312 243 L 309 246 L 317 246 L 315 244 L 320 243 L 312 243 L 315 238" style="animation-delay:1.12s"/><path pathLength="1" d="M 247 255 L 256 255 L 260 260 L 257 282 L 253 286 L 250 286 L 247 281 L 252 276 L 254 277 L 256 265 L 254 265 L 253 263 L 256 262 L 256 260 L 251 260 L 250 257 L 248 260 L 243 260 L 242 258 L 246 255" style="animation-delay:1.13s"/><path pathLength="1" d="M 356 186 L 365 188 L 358 220 L 352 221 L 350 223 L 346 221 L 350 215 L 353 215 L 353 212 L 357 210 L 357 207 L 355 205 L 359 199 L 354 198 L 351 194 L 354 191 L 354 188" style="animation-delay:1.14s"/><path pathLength="1" d="M 524 17 L 527 20 L 526 23 L 518 26 L 516 25 L 515 28 L 503 34 L 501 33 L 498 37 L 488 43 L 485 40 L 494 36 L 494 33 L 521 20" style="animation-delay:1.15s"/><path pathLength="1" d="M 469 115 L 471 117 L 457 138 L 457 146 L 452 154 L 448 157 L 444 152 L 466 118" style="animation-delay:1.16s"/><path pathLength="1" d="M 305 172 L 308 171 L 313 174 L 312 176 L 308 177 L 305 184 L 301 181 L 291 185 L 287 184 L 285 187 L 275 185 L 271 182 L 271 180 L 273 178 L 300 172" style="animation-delay:1.17s"/><path pathLength="1" d="M 316 204 L 319 204 L 318 208 L 315 207 L 316 210 L 319 207 L 339 204 L 340 207 L 335 208 L 333 216 L 324 216 L 323 210 L 321 210 L 320 214 L 316 216 L 311 209 L 314 204" style="animation-delay:1.18s"/><path pathLength="1" d="M 283 201 L 288 200 L 300 205 L 299 208 L 296 207 L 294 209 L 297 207 L 298 210 L 294 222 L 292 223 L 291 220 L 293 212 L 287 210 L 285 213 L 287 216 L 284 217 L 282 211 L 285 204 L 283 203" style="animation-delay:1.18s"/><path pathLength="1" d="M 318 301 L 325 301 L 328 307 L 322 311 L 319 311 L 318 306 L 322 304 L 302 312 L 302 308 L 316 303" style="animation-delay:1.19s"/><path pathLength="1" d="M 285 330 L 287 329 L 290 333 L 287 333 L 284 342 L 278 348 L 271 349 L 264 347 L 265 345 L 269 345 L 270 343 L 276 343 L 277 345 L 277 343 L 281 340 L 283 333 L 285 332" style="animation-delay:1.20s"/><path pathLength="1" d="M 340 186 L 345 190 L 346 193 L 341 216 L 339 217 L 334 213 L 334 210 L 336 208 L 341 207 L 340 202 L 343 196 L 338 188" style="animation-delay:1.20s"/><path pathLength="1" d="M 355 167 L 359 168 L 360 172 L 358 173 L 356 170 L 355 177 L 349 178 L 355 178 L 355 182 L 353 183 L 346 178 L 344 179 L 341 177 L 342 174 L 350 175 L 352 170" style="animation-delay:1.21s"/><path pathLength="1" d="M 434 175 L 427 185 L 428 191 L 434 198 L 437 198 L 442 191 L 442 189 L 435 191 L 432 190 L 438 181 L 438 177 L 436 175" style="animation-delay:1.22s"/><path pathLength="1" d="M 329 290 L 332 291 L 331 293 L 337 290 L 340 293 L 339 296 L 336 296 L 328 301 L 326 300 L 327 298 L 323 301 L 319 301 L 316 299 L 320 293 L 326 295 L 327 292" style="animation-delay:1.22s"/><path pathLength="1" d="M 448 138 L 450 138 L 451 141 L 444 151 L 446 157 L 440 158 L 436 164 L 433 162 L 434 158 L 446 140" style="animation-delay:1.23s"/><path pathLength="1" d="M 414 204 L 416 203 L 425 213 L 417 227 L 413 230 L 406 222 L 406 219 L 414 207" style="animation-delay:1.23s"/><path pathLength="1" d="M 369 258 L 371 260 L 360 276 L 352 284 L 350 282 L 361 270 L 367 260" style="animation-delay:1.24s"/><path pathLength="1" d="M 296 299 L 299 298 L 300 300 L 295 305 L 299 303 L 302 307 L 295 308 L 291 314 L 287 313 L 292 309 L 292 301 L 296 300" style="animation-delay:1.24s"/><path pathLength="1" d="M 290 224 L 292 223 L 293 226 L 287 249 L 284 249 L 286 236 L 290 226" style="animation-delay:1.25s"/><path pathLength="1" d="M 484 105 L 487 104 L 493 111 L 486 121 L 486 125 L 484 126 L 476 116 L 484 106" style="animation-delay:1.25s"/><path pathLength="1" d="M 206 283 L 183 290 L 207 283" style="animation-delay:1.26s"/><path pathLength="1" d="M 193 291 L 190 294 L 184 292 L 184 294 L 182 295 L 186 296 L 184 299 L 186 299 L 187 297 L 196 297 L 189 297 L 189 295 L 194 291" style="animation-delay:1.26s"/><path pathLength="1" d="M 269 324 L 276 324 L 282 329 L 283 335 L 281 339 L 276 343 L 268 342 L 263 337 L 264 329" style="animation-delay:1.27s"/><path pathLength="1" d="M 172 292 L 163 295 L 163 302 L 166 301 L 167 297 L 169 298 L 169 301 L 172 300 L 173 295 L 175 296 L 176 300 L 178 299 L 178 292" style="animation-delay:1.27s"/><path pathLength="1" d="M 302 175 L 299 177 L 285 179 L 279 182 L 277 181 L 280 182 L 285 179 L 302 176" style="animation-delay:1.27s"/><path pathLength="1" d="M 302 270 L 305 271 L 304 273 L 301 272 L 304 273 L 305 276 L 309 276 L 310 274 L 321 276 L 318 276 L 317 272 L 304 270" style="animation-delay:1.28s"/><path pathLength="1" d="M 51 285 L 57 284 L 58 286 L 41 295 L 40 297 L 37 296 L 39 291 L 42 289 L 44 290 L 49 285" style="animation-delay:1.28s"/><path pathLength="1" d="M 307 253 L 310 252 L 315 255 L 314 257 L 306 257 L 313 260 L 313 263 L 308 265 L 307 261 L 301 257 L 303 253" style="animation-delay:1.29s"/><path pathLength="1" d="M 269 186 L 269 188 L 275 191 L 285 193 L 286 197 L 287 194 L 275 191 L 270 187" style="animation-delay:1.29s"/><path pathLength="1" d="M 479 98 L 482 97 L 486 102 L 479 112 L 475 115 L 472 109 L 479 99" style="animation-delay:1.30s"/><path pathLength="1" d="M 350 198 L 353 198 L 351 207 L 355 208 L 354 211 L 351 211 L 350 209 L 350 212 L 347 212 L 350 199" style="animation-delay:1.30s"/><path pathLength="1" d="M 526 49 L 531 48 L 536 53 L 536 58 L 531 63 L 526 62 L 522 58 L 522 53 L 525 49" style="animation-delay:1.30s"/><path pathLength="1" d="M 315 250 L 319 253 L 327 254 L 326 252 L 328 251 L 331 255 L 329 257 L 318 257 L 313 252" style="animation-delay:1.31s"/><path pathLength="1" d="M 301 190 L 303 189 L 307 194 L 307 197 L 303 201 L 299 201 L 295 197 L 295 193 L 298 190 L 303 193 L 301 191" style="animation-delay:1.31s"/><path pathLength="1" d="M 59 292 L 63 292 L 61 295 L 48 301 L 46 300 L 46 297 L 54 295 L 57 292" style="animation-delay:1.31s"/><path pathLength="1" d="M 482 132 L 471 149 L 482 133" style="animation-delay:1.32s"/><path pathLength="1" d="M 529 15 L 531 14 L 534 19 L 537 19 L 539 21 L 538 23 L 529 23 L 527 21 L 530 18 L 527 17 L 528 15" style="animation-delay:1.32s"/><path pathLength="1" d="M 249 180 L 252 180 L 256 184 L 256 188 L 252 191 L 251 189 L 253 186 L 250 184 L 249 188 L 247 189 L 245 187 L 245 184" style="animation-delay:1.32s"/><path pathLength="1" d="M 237 187 L 240 186 L 241 190 L 233 194 L 231 198 L 228 197 L 228 195 L 237 188" style="animation-delay:1.33s"/><path pathLength="1" d="M 310 177 L 314 176 L 319 179 L 319 181 L 310 188 L 306 186 L 309 177" style="animation-delay:1.33s"/><path pathLength="1" d="M 63 284 L 66 284 L 66 288 L 55 293 L 52 290 L 62 284" style="animation-delay:1.33s"/><path pathLength="1" d="M 332 169 L 336 169 L 339 172 L 338 177 L 335 178 L 335 174 L 333 174 L 334 178 L 332 179 L 329 176 L 329 172" style="animation-delay:1.34s"/><path pathLength="1" d="M 434 176 L 436 176 L 438 180 L 432 189 L 429 191 L 427 188 L 432 178" style="animation-delay:1.34s"/><path pathLength="1" d="M 479 48 L 477 51 L 474 51 L 470 54 L 470 58 L 472 59 L 474 56 L 482 53 L 480 48" style="animation-delay:1.34s"/><path pathLength="1" d="M 45 281 L 48 280 L 52 282 L 50 285 L 42 289 L 40 288 L 40 285 L 47 283 L 45 282" style="animation-delay:1.34s"/><path pathLength="1" d="M 260 146 L 266 145 L 271 149 L 271 151 L 264 157 L 260 148" style="animation-delay:1.35s"/><path pathLength="1" d="M 385 233 L 388 233 L 381 245 L 378 245 L 385 234" style="animation-delay:1.35s"/><path pathLength="1" d="M 261 273 L 267 273 L 270 276 L 269 279 L 265 276 L 258 278 L 257 275 L 259 273" style="animation-delay:1.35s"/><path pathLength="1" d="M 311 298 L 315 297 L 316 299 L 305 305 L 301 305 L 299 303 L 303 298" style="animation-delay:1.36s"/><path pathLength="1" d="M 284 299 L 288 299 L 292 303 L 292 308 L 289 311 L 285 311 L 282 308 L 281 302" style="animation-delay:1.36s"/><path pathLength="1" d="M 275 268 L 279 267 L 282 270 L 282 274 L 278 278 L 276 278 L 272 274 L 272 270 L 274 268" style="animation-delay:1.36s"/><path pathLength="1" d="M 255 119 L 258 119 L 259 124 L 251 128 L 249 126 L 251 125 L 250 121 L 252 119" style="animation-delay:1.36s"/><path pathLength="1" d="M 449 163 L 451 162 L 457 167 L 453 172 L 448 174 L 446 172 L 449 168" style="animation-delay:1.37s"/><path pathLength="1" d="M 469 151 L 461 163 L 469 152" style="animation-delay:1.37s"/><path pathLength="1" d="M 243 122 L 245 122 L 249 128 L 244 131 L 239 131 L 238 129 L 241 128 L 241 124" style="animation-delay:1.37s"/><path pathLength="1" d="M 454 175 L 445 188 L 452 177" style="animation-delay:1.37s"/><path pathLength="1" d="M 486 84 L 480 93 L 482 91 L 484 92 L 483 94 L 485 92 L 484 88 L 486 85" style="animation-delay:1.38s"/><path pathLength="1" d="M 310 278 L 306 279 L 307 282 L 303 284 L 304 288 L 307 288 L 306 284 L 310 281" style="animation-delay:1.38s"/><path pathLength="1" d="M 27 323 L 34 328 L 36 327 L 34 328 L 33 326 L 36 324 L 28 324" style="animation-delay:1.38s"/><path pathLength="1" d="M 153 297 L 155 296 L 157 301 L 155 302 L 154 299 L 154 302 L 152 304 L 150 303 L 152 297" style="animation-delay:1.38s"/><path pathLength="1" d="M 269 234 L 271 233 L 273 236 L 271 238 L 272 241 L 269 245 L 267 244 L 269 237" style="animation-delay:1.38s"/><path pathLength="1" d="M 413 234 L 406 245 L 414 234" style="animation-delay:1.39s"/><path pathLength="1" d="M 360 172 L 363 172 L 366 175 L 366 178 L 364 180 L 356 179 L 355 177 L 358 174" style="animation-delay:1.39s"/><path pathLength="1" d="M 438 190 L 440 189 L 441 191 L 436 198 L 431 193 L 432 191 L 436 190" style="animation-delay:1.39s"/><path pathLength="1" d="M 519 48 L 513 52 L 515 54 L 518 53 L 519 51 L 517 53 L 515 52 L 518 49" style="animation-delay:1.39s"/><path pathLength="1" d="M 435 202 L 428 212 L 435 203" style="animation-delay:1.40s"/><path pathLength="1" d="M 72 279 L 74 278 L 76 282 L 68 285 L 66 282 L 71 279" style="animation-delay:1.40s"/><path pathLength="1" d="M 106 307 L 108 308 L 109 313 L 111 313 L 111 311 L 115 308 L 107 307" style="animation-delay:1.40s"/><path pathLength="1" d="M 359 181 L 362 180 L 363 184 L 364 181 L 366 182 L 365 187 L 359 185" style="animation-delay:1.40s"/><path pathLength="1" d="M 266 246 L 268 245 L 270 250 L 269 254 L 265 256 L 264 254 L 266 249" style="animation-delay:1.40s"/><path pathLength="1" d="M 446 165 L 440 176 L 446 167" style="animation-delay:1.41s"/><path pathLength="1" d="M 463 115 L 465 115 L 466 118 L 462 124 L 460 125 L 458 123 L 461 117" style="animation-delay:1.41s"/><path pathLength="1" d="M 136 242 L 140 243 L 141 247 L 137 249 L 137 245 L 135 247 L 134 244" style="animation-delay:1.41s"/><path pathLength="1" d="M 320 212 L 322 211 L 324 216 L 323 218 L 317 219 L 316 217 L 320 214" style="animation-delay:1.41s"/><path pathLength="1" d="M 427 80 L 431 79 L 433 82 L 426 86 L 424 85 L 424 82 L 426 80" style="animation-delay:1.41s"/><path pathLength="1" d="M 133 301 L 135 300 L 136 303 L 133 305 L 130 304 L 128 306 L 126 304 L 130 301" style="animation-delay:1.42s"/><path pathLength="1" d="M 27 331 L 29 330 L 32 333 L 30 338 L 27 338 L 24 335 L 26 331" style="animation-delay:1.42s"/><path pathLength="1" d="M 298 202 L 303 201 L 305 204 L 301 207 L 300 205 L 302 204 L 298 203" style="animation-delay:1.42s"/><path pathLength="1" d="M 391 224 L 394 224 L 389 232 L 387 231 L 391 225" style="animation-delay:1.42s"/><path pathLength="1" d="M 171 293 L 175 293 L 172 296 L 171 300 L 169 299 L 170 293" style="animation-delay:1.42s"/><path pathLength="1" d="M 330 300 L 336 300 L 333 306 L 331 305 L 332 302 L 330 301" style="animation-delay:1.42s"/><path pathLength="1" d="M 166 294 L 168 293 L 169 295 L 166 297 L 165 301 L 163 300 L 163 296 L 165 294" style="animation-delay:1.43s"/><path pathLength="1" d="M 545 28 L 547 27 L 548 31 L 542 33 L 540 31 L 544 28" style="animation-delay:1.43s"/></svg>