<svg xmlns="http://www.w3.org/2000/svg" viewBox="0 0 480 360" width="480" height="360"><style>path{fill:none;stroke:#15161a;stroke-width:1.1;stroke-linecap:round;stroke-linejoin:round;stroke-dasharray:1;stroke-dashoffset:1;animation:draw 1.56s ease forwards}@keyframes draw{to{stroke-dashoffset:0}}</style><path pathLength="1" d="M 304 81 L 306 82 L 306 84 L 304 85 L 307 87 L 316 105 L 308 110 L 300 112 L 292 122 L 290 121 L 288 115 L 285 114 L 285 109 L 281 109 L 241 145 L 239 150 L 238 172 L 246 172 L 250 179 L 234 199 L 234 201 L 205 230 L 203 230 L 202 228 L 230 200 L 203 226 L 199 232 L 199 236 L 195 237 L 189 232 L 190 230 L 196 231 L 198 229 L 198 224 L 192 222 L 190 224 L 190 230 L 188 231 L 187 225 L 183 220 L 186 217 L 188 218 L 188 220 L 189 216 L 193 216 L 190 215 L 191 212 L 204 211 L 213 204 L 228 189 L 230 177 L 228 182 L 225 182 L 221 187 L 217 187 L 207 194 L 202 190 L 199 190 L 196 193 L 202 190 L 203 195 L 196 197 L 187 215 L 184 218 L 179 219 L 179 228 L 179 224 L 182 222 L 184 223 L 182 226 L 182 235 L 180 237 L 159 237 L 97 231 L 89 232 L 87 227 L 95 217 L 92 212 L 97 211 L 98 216 L 103 216 L 111 213 L 113 210 L 117 209 L 118 211 L 119 209 L 170 189 L 174 193 L 184 189 L 184 187 L 190 183 L 203 185 L 199 182 L 197 185 L 189 183 L 188 180 L 197 180 L 201 176 L 204 177 L 203 179 L 205 175 L 207 176 L 207 180 L 205 182 L 207 187 L 204 188 L 205 189 L 214 185 L 220 180 L 223 180 L 229 175 L 229 164 L 223 160 L 205 158 L 201 155 L 200 152 L 198 153 L 197 151 L 199 150 L 195 148 L 193 150 L 196 149 L 197 154 L 192 155 L 187 150 L 179 131 L 176 128 L 180 126 L 180 129 L 183 129 L 187 133 L 190 140 L 186 131 L 183 129 L 183 127 L 186 126 L 193 140 L 196 142 L 218 142 L 236 139 L 297 85 L 301 84" style="animation-delay:0.00s"/><path pathLength="1" d="M 303 81 L 300 84 L 296 85 L 243 133 L 233 140 L 218 142 L 197 142 L 193 139 L 186 123 L 182 123 L 177 126 L 176 130 L 179 132 L 187 151 L 202 162 L 202 167 L 204 168 L 202 170 L 202 173 L 204 174 L 203 176 L 200 176 L 196 180 L 188 179 L 165 192 L 120 209 L 115 206 L 106 206 L 107 208 L 100 212 L 91 210 L 91 213 L 95 217 L 88 224 L 87 236 L 90 236 L 93 231 L 156 237 L 180 237 L 182 236 L 182 227 L 185 224 L 187 225 L 186 234 L 189 236 L 192 235 L 194 237 L 198 237 L 204 233 L 233 203 L 259 167 L 279 143 L 295 118 L 302 111 L 309 110 L 320 103 L 309 81" style="animation-delay:0.48s"/><path pathLength="1" d="M 298 88 L 237 142 L 228 145 L 198 146 L 192 143 L 194 145 L 203 146 L 204 149 L 210 152 L 225 155 L 228 154 L 228 148 L 205 149 L 205 146 L 228 145 L 241 140 L 288 98 L 290 98 L 291 101 L 287 104 L 294 99 L 296 100 L 288 110 L 290 113 L 293 108 L 292 106 L 296 104 L 296 101 L 300 96 L 299 93 L 293 99 L 291 99 L 290 97 L 298 89" style="animation-delay:0.75s"/><path pathLength="1" d="M 184 192 L 137 210 L 99 222 L 99 225 L 101 226 L 171 225 L 177 218 L 178 212 L 182 211 L 186 197 L 183 206 L 180 208 L 179 204 L 182 197 L 186 194 L 185 192" style="animation-delay:0.90s"/><path pathLength="1" d="M 180 194 L 183 193 L 184 195 L 182 196 L 179 204 L 178 214 L 175 220 L 170 225 L 103 226 L 99 224 L 102 221 L 137 210 L 163 199 L 169 198 L 172 207 L 174 207 L 172 198 L 179 194" style="animation-delay:0.99s"/><path pathLength="1" d="M 282 109 L 284 109 L 285 112 L 243 168 L 239 166 L 239 150 L 241 146 L 280 111" style="animation-delay:1.07s"/><path pathLength="1" d="M 226 182 L 229 183 L 228 188 L 203 211 L 190 211 L 194 201 L 196 199 L 199 199 L 200 197 L 203 197 L 204 194 L 206 195 L 209 192 L 216 190 L 218 187 L 221 188 L 223 185" style="animation-delay:1.13s"/><path pathLength="1" d="M 283 130 L 285 131 L 284 135 L 267 158 L 260 164 L 259 162 L 263 158 L 262 155 L 271 148 L 272 143 L 277 140 L 281 132" style="animation-delay:1.17s"/><path pathLength="1" d="M 156 304 L 245 304" style="animation-delay:1.20s"/><path pathLength="1" d="M 206 159 L 213 158 L 223 160 L 229 165 L 228 167 L 218 165 L 210 170 L 207 175 L 205 174 L 206 171" style="animation-delay:1.23s"/><path pathLength="1" d="M 218 166 L 220 168 L 211 174 L 219 169 L 221 169 L 222 172 L 210 177 L 208 173 L 216 168" style="animation-delay:1.26s"/><path pathLength="1" d="M 222 167 L 225 166 L 228 169 L 229 174 L 226 175 L 224 179 L 219 180 L 216 183 L 213 181 L 217 177 L 223 176 L 225 170 L 222 169" style="animation-delay:1.28s"/><path pathLength="1" d="M 182 183 L 185 182 L 186 184 L 176 189 L 181 186 L 183 186 L 184 188 L 177 192 L 175 192 L 173 188 L 181 183" style="animation-delay:1.30s"/><path pathLength="1" d="M 228 193 L 227 194" style="animation-delay:1.32s"/><path pathLength="1" d="M 207 149 L 227 148 L 229 150 L 226 155 L 210 152 L 207 150" style="animation-delay:1.34s"/><path pathLength="1" d="M 206 214 L 204 216 L 197 216 L 193 219 L 198 220 L 205 218 L 209 215 L 207 215" style="animation-delay:1.36s"/><path pathLength="1" d="M 268 135 L 271 135 L 272 140 L 271 142 L 269 140 L 268 141 L 270 143 L 268 145 L 265 141 L 268 136" style="animation-delay:1.37s"/><path pathLength="1" d="M 199 157 L 202 156 L 206 159 L 206 166 L 203 167 L 202 162 L 199 158" style="animation-delay:1.38s"/><path pathLength="1" d="M 300 108 L 292 116 L 298 109 L 303 108" style="animation-delay:1.39s"/><path pathLength="1" d="M 163 229 L 166 231 L 166 234 L 171 230 L 169 231 L 168 229 L 166 231 L 165 229" style="animation-delay:1.40s"/><path pathLength="1" d="M 264 141 L 271 147 L 267 149 L 262 143" style="animation-delay:1.41s"/><path pathLength="1" d="M 193 222 L 198 225 L 198 228 L 193 231 L 190 229 L 190 225" style="animation-delay:1.42s"/></svg>